# File produced by Open Asset Import Library (http://www.assimp.sf.net)
# (assimp v3.1.113183908)

mtllib Pipe.mtl

# vertex positions
v -46.652592 50.640411 6.074479
v -32.555943 6.220978 21.755630
v -13.362267 11.807861 48.943764
v -34.915497 42.705170 9.964102
v -21.905598 30.591553 33.301723
v -28.139809 11.759583 -6.101417
v -1.930376 7.881439 26.854073
v -6.205188 56.078278 29.507122
v -12.365387 48.145386 43.522610
v 28.759172 50.580017 40.265064
v -24.180561 143.265533 13.778753
v 2.225618 166.389740 28.431698
v 11.423903 145.383759 23.482380
v -11.329309 57.036957 16.741297
v -12.914356 255.231949 18.770830
v -18.696692 250.594360 26.229046
v -30.960667 222.652084 -8.227389
v -26.013226 388.010406 -3.703122
v -3.987548 384.056702 28.473778
v -30.321312 423.870087 3.327435
v 0.881001 429.586182 30.912418
v -20.101755 400.006866 23.722990
v -24.125099 439.274078 14.525332
v -8.307745 458.187256 25.805593
v -18.106689 585.154846 17.684929
v -30.793125 395.793213 32.153896
v -43.637329 433.407349 11.890304
v 0.091324 438.159424 39.452427
v -14.379408 389.339508 0.756727
v 5.545593 386.664276 15.676870
v 4.281906 280.703796 29.171394
v -10.915646 340.238251 -22.079090
v -4.737642 714.837219 -7.024014
v -2.758168 712.350830 15.276985
v -13.966282 435.877563 6.477633
v 9.315887 645.331421 27.686701
v -6.799812 718.607300 31.333153
v -51.935570 766.060059 -12.950800
v -18.932367 738.762451 23.978628
v -43.646412 769.942078 -5.865130
v -27.707088 625.254578 1.191614
v 0.675386 727.942871 24.974115
v -19.190201 52.588013 -44.657936
v -42.707520 12.159454 -20.723974
v -22.617939 60.976288 -20.396978
v -27.261719 3.858673 -17.457056
v -17.027811 13.161438 -45.200439
v -6.412201 177.643829 -24.580637
v -16.130066 195.065628 -13.592144
v -23.010849 32.465271 -33.427223
v 13.709536 13.599579 -27.777069
v -2.287165 41.622711 -35.890034
v -7.747040 63.783752 -14.933434
v 4.185528 159.417023 -33.092140
v 17.403124 121.594757 -25.980640
v -5.635800 67.007660 -29.657990
v 15.465082 57.731506 -36.281384
v -6.737825 202.640167 -28.127216
v -1.324911 388.271179 -35.190247
v -30.632366 388.415405 -39.671711
v -25.902042 443.864868 -13.309456
v -17.156305 402.346649 -33.575619
v -15.716967 423.431152 -34.279022
v 17.461603 275.801239 -21.573553
v 13.687618 389.124146 -22.250114
v -14.703876 567.612244 -27.122906
v -17.809639 706.078125 -10.664819
v -5.912005 729.094299 -34.247372
v -43.266582 766.904114 -17.070732
v -36.620308 776.452881 -27.767323
v -36.627644 776.422180 -27.775110
v -36.597221 776.429871 -27.782757
v -7.900936 691.441895 -25.118624
v -5.590587 739.479492 -27.536066
v 2.155447 772.928833 -48.253983
v 38.324242 14.000641 27.787235
v 20.075003 43.295044 26.813148
v 38.401077 29.182251 11.485662
v 26.957273 9.844879 4.758047
v 17.835012 57.069305 9.863362
v 22.827618 170.948975 10.198366
v 39.883507 5.300964 -6.512298
v 46.452324 49.826385 -4.090611
v 25.456541 57.676605 21.035887
v 33.094849 43.656860 -16.820915
v 24.830601 62.773590 -23.685915
v 31.138620 196.371353 10.517115
v 16.971670 276.776794 27.323343
v 11.365827 232.712143 17.565710
v 25.515900 330.074829 9.806794
v 35.305206 390.017731 9.325228
v 28.506836 216.519348 -9.413265
v 4.449821 439.386810 17.040461
v 18.801100 442.044678 5.875792
v 40.995438 389.974854 33.275330
v 38.684307 414.033997 19.208361
v 23.057505 390.565216 -2.045717
v 33.573879 436.046021 30.797302
v 31.621990 465.595154 7.863140
v 35.407288 453.236237 -12.391883
v 52.312099 434.835571 9.523772
v 23.254726 654.764343 8.264341
v 28.184849 686.033752 26.717052
v 10.399812 720.773315 39.492237
v 14.099811 733.507568 31.031796
v 40.624977 778.205872 15.443125
v 36.835773 778.400696 30.077358
v 22.462242 657.539001 -16.567722
v 33.727909 751.779480 -4.796500
v 22.350386 800.944153 38.055630
v 60.143776 807.682495 22.264074
v 48.252895 822.439087 21.761425
v 71.312866 862.623901 -11.005483
v 51.356281 786.007141 -18.314259
v 25.926176 15.086792 -37.353676
v 22.099192 390.942688 -27.420794
v 1.911409 483.947906 -26.279076
v 22.862757 449.573273 -33.476284
v 0.329563 442.576080 -39.120872
v 26.007732 414.563904 -38.668266
v -4.946363 440.006104 -20.627878
v 19.113094 435.703217 -19.205658
v 37.281441 434.603699 -41.006241
v 42.084599 394.927429 -8.763391
v 27.746990 391.222839 -45.837379
v 30.828995 645.373230 -24.621534
v 8.943440 526.696167 -33.034306
v 34.205826 593.975586 -0.905168
v 9.832425 811.124390 -51.690651
v 2.128042 802.904785 -37.566978
v 27.795109 768.336914 -36.460793
v 62.044273 846.572327 -20.524405
v 27.179544 826.301025 -34.369717
v 62.943951 868.212036 -34.540146
v 57.578979 868.987671 -18.991404
v -26.438213 60.053680 1.612296
v -14.668625 436.020172 -50.956860
v -8.262173 382.160614 -15.465977
v 14.526010 61.404907 -10.131432
v 12.014604 714.956970 -13.125804

# UV coordinates
vt 0.664791 0.278858
vt 0.624154 0.300869
vt 0.608161 0.276607
vt 0.600067 0.347282
vt 0.590980 0.325704
vt 0.633303 0.333231
vt 0.591788 0.294384
vt 0.648591 0.241869
vt 0.634047 0.251172
vt 0.613240 0.220520
vt 0.726965 0.199523
vt 0.720739 0.162477
vt 0.493660 0.405604
vt 0.570766 0.354721
vt 0.436653 0.500508
vt 0.788991 0.114026
vt 0.796737 0.157587
vt 0.900008 0.028740
vt 0.864406 0.011709
vt 0.320945 0.635894
vt 0.296811 0.619129
vt 0.328440 0.608442
vt 0.346233 0.129294
vt 0.345573 0.157849
vt 0.250172 0.239642
vt 0.882940 0.000000
vt 0.353088 0.113711
vt 0.371254 0.151382
vt 0.349602 0.607764
vt 0.331871 0.583420
vt 0.407602 0.509697
vt 0.401979 0.589485
vt 0.108068 0.837764
vt 0.099707 0.816370
vt 0.303869 0.643038
vt 0.233647 0.303079
vt 0.177961 0.350117
vt 0.402210 0.350684
vt 0.364101 0.386844
vt 0.390198 0.350123
vt 0.210938 0.258332
vt 0.155356 0.356979
vt 0.341871 0.393833
vt 0.327098 0.382958
vt 0.701163 0.305122
vt 0.656434 0.318050
vt 0.696419 0.282736
vt 0.647471 0.331678
vt 0.677760 0.334877
vt 0.523036 0.474281
vt 0.500652 0.477646
vt 0.635502 0.370293
vt 0.684512 0.368886
vt 0.652124 0.385253
vt 0.635581 0.410235
vt 0.784512 0.231481
vt 0.424951 0.386316
vt 0.498829 0.304615
vt 0.476245 0.359791
vt 0.717954 0.293143
vt 0.726132 0.318761
vt 0.806559 0.192548
vt 0.930206 0.056359
vt 0.348305 0.051108
vt 0.391895 0.098302
vt 0.322670 0.109799
vt 0.356762 0.640208
vt 0.342921 0.654886
vt 0.312885 0.493403
vt 0.375391 0.470080
vt 0.297826 0.541767
vt 0.224658 0.195859
vt 0.031785 0.869164
vt 0.000000 0.838573
vt 0.042406 0.814948
vt 0.064829 0.854810
vt 0.051352 0.819840
vt 0.000000 0.000000
vt 0.145213 0.289572
vt 0.151417 0.311126
vt 0.082332 0.862204
vt 0.058366 0.889375
vt 0.576320 0.234265
vt 0.556906 0.319975
vt 0.544201 0.299233
vt 0.555865 0.283425
vt 0.542342 0.334344
vt 0.464246 0.413947
vt 0.540400 0.273796
vt 0.568503 0.260045
vt 0.748350 0.350585
vt 0.788335 0.366617
vt 0.758816 0.394564
vt 0.777265 0.348299
vt 0.519558 0.304368
vt 0.741196 0.319810
vt 0.847394 0.235609
vt 0.723538 0.384694
vt 0.780331 0.072305
vt 0.630557 0.214099
vt 0.715856 0.118904
vt 0.433288 0.467155
vt 0.357199 0.528432
vt 0.976898 0.098877
vt 0.912936 0.192879
vt 0.844898 0.208015
vt 0.285560 0.629330
vt 0.269353 0.618273
vt 0.999999 0.136064
vt 0.999719 0.097301
vt 0.289209 0.584917
vt 0.309477 0.562015
vt 0.391428 0.177072
vt 0.368401 0.195949
vt 0.247756 0.073289
vt 0.206572 0.037717
vt 0.233326 0.037761
vt 0.121685 0.759149
vt 0.052735 0.052735
vt 0.097733 0.052735
vt 0.062261 0.069148
vt 0.221940 0.344347
vt 0.355411 0.398555
vt 0.334423 0.406916
vt 0.186773 0.836722
vt 0.193641 0.896566
vt 0.168458 0.911342
vt 0.123420 0.930674
vt 0.285538 0.396744
vt 0.357480 0.444021
vt 0.168438 0.823002
vt 0.115356 0.897868
vt 0.273767 0.371264
vt 0.247631 0.398238
vt 0.235792 0.385223
vt 0.192715 0.420670
vt 0.000000 0.044554
vt 0.059652 0.000000
vt 0.043592 0.060669
vt 0.701747 0.360387
vt 0.713697 0.396297
vt 0.708105 0.417277
vt 0.949871 0.072135
vt 0.265980 0.120638
vt 0.271784 0.080209
vt 0.295267 0.085097
vt 0.372239 0.679788
vt 0.320436 0.667922
vt 0.269089 0.541517
vt 0.337870 0.685304
vt 0.272781 0.062127
vt 0.253584 0.598274
vt 0.976271 0.081534
vt 0.952515 0.057631
vt 0.297023 0.029057
vt 0.265805 0.020625
vt 0.103369 0.743405
vt 0.139628 0.230124
vt 0.230618 0.148970
vt 0.152698 0.175245
vt 0.223469 0.072664
vt 0.038245 0.921879
vt 0.055355 0.920547
vt 0.076666 0.336190
vt 0.002752 0.876891
vt 0.079575 0.990379
vt 0.044137 0.334154
vt 0.095181 0.356359
vt 0.100332 0.385466
vt 0.123814 0.347006
vt 0.147359 0.366467
vt 0.168253 0.418828
vt 0.180309 0.410563
vt 0.150640 0.436631
vt 0.678056 0.264276
vt 0.590354 0.382604
vt 0.394468 0.106725
vt 0.431147 0.160511
vt 0.416404 0.121216
vt 0.384026 0.341103
vt 0.929282 0.033730
vt 0.312097 0.077059
vt 0.369711 0.617613
vt 0.398214 0.342715
vt 0.123483 0.321407
vt 0.519534 0.325566
vt 0.244837 0.000000
vt 0.217451 0.023238
vt 0.071053 0.224434
vt 0.349767 0.410301
vt 0.288317 0.383257
vt 0.263323 0.347477
vt 0.000000 0.326847
vt 0.249257 0.342760
vt 0.184153 0.390395
vt 0.656151 0.419569
vt 0.679509 0.409034
vt 0.385051 0.641215
vt 0.348766 0.040660
vt 0.241180 0.572384
vt 0.120462 0.854062
vt 0.130448 0.335611

# vertex normals
vn -0.874308 0.455139 0.168623
vn -0.575105 -0.763320 0.294274
vn -0.188573 -0.473293 0.860485
vn 0.928239 -0.323732 -0.183223
vn 0.501664 0.045550 -0.863863
vn 0.973382 -0.048255 0.224050
vn 0.107645 -0.846969 -0.520630
vn -0.248063 0.650106 0.718211
vn -0.261258 0.481181 0.836785
vn 0.452002 0.422336 0.785702
vn -0.848804 -0.022627 0.528224
vn 0.037182 -0.013792 0.999213
vn -0.330395 0.021796 -0.943591
vn 0.454586 -0.547907 -0.702246
vn 0.767333 0.010623 -0.641160
vn -0.600939 0.011890 0.799206
vn -0.963101 -0.001983 -0.269133
vn -0.802476 -0.596084 0.026745
vn -0.196983 -0.409105 0.890972
vn 0.951760 -0.278350 -0.129127
vn 0.081677 -0.383242 -0.920030
vn 0.609523 0.401452 -0.683607
vn -0.639592 0.647671 0.414058
vn -0.256563 0.208752 0.943715
vn -0.816253 -0.041538 0.576199
vn -0.619063 -0.435125 0.653779
vn -0.872333 0.427365 0.237475
vn -0.113585 0.309969 0.943937
vn 0.913066 0.378048 -0.152939
vn -0.114293 0.296784 -0.948080
vn -0.133014 -0.035463 -0.990479
vn 0.744445 0.013937 0.667539
vn 0.759554 0.407884 0.506665
vn 0.738026 0.295274 -0.606738
vn 0.765845 -0.551060 -0.331382
vn 0.028326 -0.071041 0.997071
vn -0.391566 0.094085 0.915327
vn -0.936501 0.300104 -0.181393
vn -0.371405 0.430204 0.822790
vn -0.005806 0.908092 0.418731
vn -0.999899 0.000684 0.014223
vn 0.239148 0.960668 -0.141157
vn -0.375087 0.413918 -0.829447
vn -0.841641 -0.431470 -0.324766
vn -0.747990 0.515634 -0.417891
vn -0.017691 -0.999559 0.023834
vn -0.183954 -0.536784 -0.823422
vn 0.153543 0.048912 0.986931
vn 0.955025 0.026074 0.295377
vn 0.618634 0.048629 0.784173
vn -0.302790 -0.830514 0.467509
vn -0.068168 -0.295596 0.952878
vn 0.560516 -0.447618 0.696749
vn 0.058287 0.061007 -0.996434
vn -0.581808 0.032747 0.812667
vn -0.170313 0.428044 -0.887565
vn 0.393847 0.471069 -0.789290
vn -0.191756 0.011141 -0.981379
vn -0.091954 -0.809347 -0.580088
vn -0.601492 -0.596357 -0.531570
vn -0.829605 0.449191 -0.331637
vn 0.593239 0.377679 0.710933
vn 0.527359 -0.378200 0.760826
vn -0.773111 0.039622 0.633032
vn -0.476191 0.420825 0.772106
vn -0.685720 0.029249 -0.727277
vn -0.936047 -0.115486 -0.332384
vn -0.283754 -0.164285 -0.944719
vn 0.129685 0.686435 -0.715534
vn -0.142905 0.923314 0.356467
vn -0.143089 0.923360 0.356274
vn -0.143041 0.923463 0.356026
vn -0.506468 -0.054478 -0.860536
vn -0.491430 0.804682 0.333143
vn -0.401623 -0.088583 -0.911511
vn 0.662842 -0.508762 0.549365
vn -0.451841 -0.338832 -0.825247
vn -0.944371 0.094581 -0.314988
vn -0.861264 0.189548 -0.471483
vn -0.737224 -0.462418 -0.492616
vn -0.989525 -0.068745 -0.126945
vn 0.575075 -0.803315 -0.154836
vn 0.903532 0.414282 -0.109546
vn 0.606871 0.653324 0.452632
vn -0.835896 -0.291031 0.465380
vn 0.743625 0.336891 -0.577517
vn 0.922158 0.004085 0.386791
vn 0.530825 -0.030409 0.846936
vn -0.640074 -0.073480 -0.764792
vn -0.938049 -0.019032 -0.345978
vn 0.644723 -0.761298 0.068969
vn 0.884380 0.053834 -0.463652
vn -0.017891 -0.531253 -0.847025
vn -0.864472 -0.331458 -0.377921
vn 0.566519 -0.575592 0.589703
vn -0.859991 0.028360 -0.509520
vn -0.929264 0.367145 -0.040898
vn 0.511178 0.383976 0.768934
vn 0.831540 0.153844 0.533735
vn 0.869319 0.418954 -0.262226
vn 0.917687 0.352090 0.184075
vn -0.806341 0.064327 -0.587943
vn 0.442688 -0.115802 0.889166
vn 0.082220 0.130332 0.988055
vn -0.431232 0.807066 0.403341
vn -0.947514 0.263497 -0.181070
vn -0.558037 0.231407 0.796897
vn -0.588859 0.013147 0.808129
vn -0.837614 0.200079 0.508303
vn -0.882833 0.069990 0.464443
vn 0.816898 0.025146 0.576233
vn -0.508535 0.578182 0.638042
vn 0.792284 0.510226 0.334599
vn 0.839105 -0.118729 -0.530855
vn 0.466418 -0.500781 -0.729159
vn 0.403862 -0.827181 -0.390727
vn -0.063042 -0.006918 -0.997987
vn 0.374129 0.558973 -0.739984
vn -0.115395 0.684622 -0.719706
vn -0.603572 -0.029716 0.796754
vn 0.465189 -0.478709 0.744605
vn -0.695912 -0.453074 0.557163
vn 0.655662 0.290142 -0.697083
vn 0.812634 -0.559338 -0.163607
vn 0.433056 -0.611645 -0.662083
vn 0.566342 -0.076716 -0.820592
vn 0.212389 -0.024126 -0.976887
vn 0.992537 -0.064682 -0.103370
vn -0.245659 0.478145 -0.843225
vn -0.878436 0.356388 0.318335
vn 0.460027 0.012067 -0.887823
vn -0.906696 -0.024870 0.421052
vn -0.362759 0.844289 -0.394439
vn 0.279856 0.621314 -0.731880
vn -0.444397 0.850435 0.281553
vn -0.769389 0.600247 0.218505
vn -0.367817 0.466920 -0.804174
vn 0.708905 0.220912 0.669814
vn -0.714337 -0.371855 0.592830
vn -0.045077 0.114244 0.992429

# Mesh
g Pipe true lp
usemtl Material.001
f 1/1/1 2/2/2 3/3/3
f 4/4/4 5/5/5 6/6/6
f 7/7/7 2/2/2 6/6/6
f 6/6/6 5/5/5 7/7/7
f 8/8/8 9/9/9 10/10/10
f 11/11/11 8/8/8 12/12/12
f 13/13/13 14/14/14 15/15/15
f 11/11/11 16/16/16 17/17/17
f 17/17/17 16/16/16 18/18/18
f 11/11/11 12/12/12 16/16/16
f 16/16/16 19/19/19 18/18/18
f 20/20/20 21/21/21 22/22/22
f 23/23/23 24/24/24 25/25/25
f 19/19/19 26/26/26 18/18/18
f 23/23/23 27/27/27 28/28/28
f 29/29/29 22/22/22 30/30/30
f 29/29/29 31/31/31 32/32/32
f 33/33/33 34/34/34 35/35/35
f 36/36/36 25/25/25 24/24/24
f 36/36/36 37/37/37 25/25/25
f 38/38/38 39/39/39 40/40/40
f 41/41/41 37/37/37 39/42/39
f 40/40/40 42/43/42 34/44/34
f 43/45/43 44/46/44 1/1/1
f 45/47/45 11/11/11 17/17/17
f 46/48/46 44/46/44 47/49/47
f 48/50/48 49/51/49 14/14/14
f 50/52/50 6/6/6 51/53/51
f 52/54/52 53/55/53 50/52/50
f 17/17/17 54/56/54 45/47/45
f 48/57/48 53/58/53 55/59/55
f 51/53/51 46/48/46 47/49/47
f 43/45/43 56/60/56 57/61/57
f 58/62/58 17/17/17 59/63/59
f 59/63/59 17/17/17 18/18/18
f 49/51/49 15/15/15 14/14/14
f 54/56/54 17/17/17 58/62/58
f 48/50/48 32/32/32 49/51/49
f 60/64/60 26/65/26 27/27/27
f 27/27/27 23/23/23 61/66/61
f 62/67/62 20/20/20 22/22/22
f 63/68/63 20/20/20 62/67/62
f 32/69/32 64/70/64 65/71/65
f 66/72/66 61/66/61 25/25/25
f 66/72/66 25/25/25 41/41/41
f 67/73/67 39/74/39 38/75/38
f 67/73/67 38/75/38 68/76/68
f 38/75/38 69/77/69 68/76/68
f 70/78/70 71/78/71 72/78/72
f 72/78/72 71/78/71 70/78/70
f 73/79/73 41/41/41 67/80/67
f 33/33/33 69/77/69 34/34/34
f 74/81/74 68/76/68 69/77/69
f 68/76/68 74/81/74 75/82/75
f 9/9/9 3/3/3 76/83/76
f 77/84/77 7/7/7 5/5/5
f 7/7/7 78/85/78 79/86/79
f 80/87/80 13/13/13 81/88/81
f 82/89/82 76/90/76 7/7/7
f 79/86/79 82/89/82 7/7/7
f 83/91/83 10/92/10 76/93/76
f 78/85/78 77/84/77 80/87/80
f 84/94/84 10/92/10 83/91/83
f 78/85/78 80/87/80 85/95/85
f 86/96/86 87/97/87 84/94/84
f 83/91/83 76/93/76 82/98/82
f 16/16/16 12/12/12 88/99/88
f 12/12/12 84/100/84 87/101/87
f 89/102/89 81/88/81 13/13/13
f 89/102/89 31/31/31 64/70/64
f 64/70/64 31/31/31 90/103/90
f 91/104/91 88/105/88 92/106/92
f 93/107/93 94/108/94 21/21/21
f 30/30/30 90/103/90 31/31/31
f 19/109/19 88/105/88 91/104/91
f 19/109/19 91/104/91 95/110/95
f 30/30/30 96/111/96 97/112/97
f 24/24/24 98/113/98 99/114/99
f 100/115/100 98/116/98 101/117/101
f 102/118/102 93/107/93 34/34/34
f 37/119/37 103/120/103 104/121/104
f 37/37/37 36/36/36 103/122/103
f 37/123/37 105/124/105 42/43/42
f 102/125/102 34/126/34 105/127/105
f 106/128/106 102/125/102 105/127/105
f 107/129/107 105/124/105 103/130/103
f 108/131/108 102/125/102 109/132/109
f 102/125/102 106/128/106 109/132/109
f 110/133/110 107/129/107 111/134/111
f 103/130/103 111/134/111 107/129/107
f 110/133/110 111/134/111 112/135/112
f 113/136/113 112/135/112 111/134/111
f 114/137/114 113/138/113 111/139/111
f 57/61/57 56/60/56 86/96/86
f 115/140/115 47/49/47 43/45/43
f 55/59/55 81/88/81 48/57/48
f 82/98/82 79/141/79 51/53/51
f 51/53/51 79/141/79 78/142/78
f 59/63/59 116/143/116 58/62/58
f 64/70/64 81/88/81 89/102/89
f 116/143/116 92/106/92 58/62/58
f 92/106/92 87/97/87 86/96/86
f 117/144/117 118/145/118 119/146/119
f 120/147/120 121/148/121 63/68/63
f 120/149/120 97/112/97 96/111/96
f 120/147/120 122/150/122 121/148/121
f 118/145/118 123/151/123 119/146/119
f 96/111/96 94/108/94 122/152/122
f 124/153/124 91/104/91 125/154/125
f 118/145/118 100/115/100 123/151/123
f 125/155/125 123/151/123 124/156/124
f 123/151/123 100/115/100 101/117/101
f 123/151/123 101/117/101 124/156/124
f 108/131/108 33/33/33 121/148/121
f 122/152/122 94/108/94 108/157/108
f 66/72/66 126/158/126 127/159/127
f 94/108/94 102/118/102 108/157/108
f 127/159/127 126/158/126 128/160/128
f 100/115/100 128/160/128 99/161/99
f 129/162/129 75/82/75 130/163/130
f 126/158/126 73/79/73 131/164/131
f 129/162/129 114/165/114 75/82/75
f 130/163/130 74/81/74 132/166/132
f 114/167/114 131/164/131 75/168/75
f 114/169/114 129/170/129 133/171/133
f 131/164/131 114/167/114 126/158/126
f 126/158/126 114/167/114 128/160/128
f 134/172/134 114/169/114 133/171/133
f 134/172/134 133/171/133 135/173/135
f 134/172/134 113/174/113 114/169/114
f 135/173/135 113/136/113 134/172/134
f 44/46/44 2/2/2 1/1/1
f 1/1/1 3/3/3 9/9/9
f 136/175/136 1/1/1 9/9/9
f 2/2/2 7/7/7 3/3/3
f 11/11/11 136/175/136 8/8/8
f 53/176/53 14/14/14 4/4/4
f 14/14/14 5/5/5 4/4/4
f 136/175/136 9/9/9 8/8/8
f 14/14/14 77/84/77 5/5/5
f 49/51/49 32/32/32 15/15/15
f 88/99/88 19/19/19 16/16/16
f 15/15/15 32/32/32 31/31/31
f 27/27/27 26/177/26 28/28/28
f 35/35/35 21/21/21 20/20/20
f 24/24/24 23/23/23 28/28/28
f 28/28/28 26/177/26 95/178/95
f 26/177/26 19/179/19 95/178/95
f 29/29/29 30/30/30 31/31/31
f 35/35/35 93/107/93 21/21/21
f 37/37/37 41/41/41 25/25/25
f 61/66/61 23/23/23 25/25/25
f 35/35/35 34/34/34 93/107/93
f 40/40/40 39/39/39 42/43/42
f 69/180/69 40/40/40 34/44/34
f 42/43/42 39/39/39 37/123/37
f 44/46/44 46/48/46 2/2/2
f 45/47/45 1/1/1 136/175/136
f 50/52/50 4/4/4 6/6/6
f 45/47/45 43/45/43 1/1/1
f 43/45/43 47/49/47 44/46/44
f 2/2/2 46/48/46 6/6/6
f 45/47/45 136/175/136 11/11/11
f 53/176/53 4/4/4 50/52/50
f 43/45/43 45/47/45 56/60/56
f 53/176/53 48/50/48 14/14/14
f 46/48/46 51/53/51 6/6/6
f 54/56/54 56/60/56 45/47/45
f 52/54/52 50/52/50 51/53/51
f 60/181/60 18/18/18 26/26/26
f 61/66/61 137/182/137 27/27/27
f 60/64/60 27/27/27 137/182/137
f 62/67/62 22/22/22 29/29/29
f 121/148/121 35/35/35 20/20/20
f 63/68/63 121/148/121 20/20/20
f 60/181/60 59/63/59 18/18/18
f 138/183/138 29/29/29 32/32/32
f 121/148/121 33/33/33 35/35/35
f 62/67/62 29/29/29 138/183/138
f 137/182/137 61/66/61 119/146/119
f 73/79/73 66/72/66 41/41/41
f 61/66/61 66/72/66 127/159/127
f 61/66/61 117/144/117 119/146/119
f 127/159/127 117/144/117 61/66/61
f 38/38/38 40/40/40 69/184/69
f 67/80/67 41/41/41 39/42/39
f 74/81/74 69/77/69 33/33/33
f 68/185/68 73/79/73 67/80/67
f 75/82/75 74/81/74 130/163/130
f 84/100/84 8/8/8 10/10/10
f 13/13/13 80/87/80 14/14/14
f 10/10/10 9/9/9 76/83/76
f 7/7/7 76/90/76 3/3/3
f 77/84/77 78/85/78 7/7/7
f 14/14/14 80/87/80 77/84/77
f 12/12/12 8/8/8 84/100/84
f 55/59/55 139/186/139 80/87/80
f 55/59/55 80/87/80 81/88/81
f 15/15/15 89/102/89 13/13/13
f 31/31/31 89/102/89 15/15/15
f 88/99/88 12/12/12 87/101/87
f 87/97/87 92/106/92 88/105/88
f 21/21/21 96/111/96 22/22/22
f 28/28/28 95/178/95 98/113/98
f 96/111/96 30/30/30 22/22/22
f 21/21/21 94/108/94 96/111/96
f 98/113/98 24/24/24 28/28/28
f 97/112/97 90/103/90 30/30/30
f 91/104/91 124/153/124 95/110/95
f 100/115/100 99/161/99 98/116/98
f 95/187/95 101/117/101 98/188/98
f 124/156/124 101/117/101 95/187/95
f 99/114/99 36/36/36 24/24/24
f 93/107/93 102/118/102 94/108/94
f 128/160/128 103/189/103 99/161/99
f 36/36/36 99/114/99 103/122/103
f 105/124/105 37/123/37 104/190/104
f 105/124/105 34/44/34 42/43/42
f 107/129/107 106/191/106 105/124/105
f 105/124/105 104/190/104 103/130/103
f 112/135/112 107/192/107 110/133/110
f 111/193/111 103/189/103 128/160/128
f 112/135/112 106/194/106 107/192/107
f 132/195/132 106/194/106 112/135/112
f 132/195/132 112/135/112 135/173/135
f 113/136/113 135/173/135 112/135/112
f 139/186/139 55/59/55 53/58/53
f 53/55/53 52/54/52 139/196/139
f 54/56/54 86/96/86 56/60/56
f 85/197/85 52/54/52 51/53/51
f 85/197/85 139/196/139 52/54/52
f 47/49/47 115/140/115 51/53/51
f 139/186/139 85/95/85 80/87/80
f 51/53/51 115/140/115 82/98/82
f 43/45/43 57/61/57 115/140/115
f 86/96/86 84/94/84 83/91/83
f 85/197/85 51/53/51 78/142/78
f 115/140/115 83/91/83 82/98/82
f 57/61/57 83/91/83 115/140/115
f 57/61/57 86/96/86 83/91/83
f 32/69/32 48/57/48 64/70/64
f 64/70/64 48/57/48 81/88/81
f 92/106/92 54/56/54 58/62/58
f 54/56/54 92/106/92 86/96/86
f 91/104/91 92/106/92 116/143/116
f 65/198/65 138/183/138 32/32/32
f 62/67/62 138/183/138 65/198/65
f 60/181/60 125/154/125 59/63/59
f 59/63/59 125/154/125 116/143/116
f 120/147/120 62/67/62 65/198/65
f 120/147/120 63/68/63 62/67/62
f 137/182/137 125/155/125 60/199/60
f 64/70/64 90/103/90 65/71/65
f 65/71/65 90/103/90 97/112/97
f 100/115/100 118/145/118 117/144/117
f 123/151/123 125/155/125 137/182/137
f 123/151/123 137/182/137 119/146/119
f 116/143/116 125/154/125 91/104/91
f 120/149/120 65/71/65 97/112/97
f 96/111/96 122/152/122 120/200/120
f 108/131/108 121/148/121 122/150/122
f 73/79/73 126/158/126 66/72/66
f 127/159/127 100/115/100 117/144/117
f 127/159/127 128/160/128 100/115/100
f 140/201/140 33/33/33 108/131/108
f 74/81/74 33/33/33 140/201/140
f 109/132/109 74/81/74 140/201/140
f 131/164/131 73/79/73 68/185/68
f 75/168/75 131/164/131 68/185/68
f 109/132/109 140/201/140 108/131/108
f 109/132/109 132/166/132 74/81/74
f 133/171/133 130/202/130 132/195/132
f 128/160/128 114/167/114 111/193/111
f 133/171/133 129/170/129 130/202/130
f 106/128/106 132/166/132 109/132/109
f 135/173/135 133/171/133 132/195/132
